# xmcd CD database file
#
# Track frame offsets:
#	150
#	6746
#	23716
#	42695
#	71470
#	91835
#	111963
#	133143
#	155481
#	180552
#	199683
#
# Disc length: 2723 seconds
#
# Revision: 0
# Processed by: cddbd v1.5.2PL0 Copyright (c) Steve Scherf et al.
# Submitted via: CDex 2.15
#
DISCID=970aa10b
DTITLE=Thornbridge - Theatrical Masterpiece
DYEAR=2019
DGENRE=Power Ballad
TTITLE0=Take to the Oars
TTITLE1=Theatrical Masterpiece
TTITLE2=Keeper of the Royal Treasure
TTITLE3=Revelation
TTITLE4=Demon in Your Heart
TTITLE5=Journey to the Other Side
TTITLE6=Ember in the Winter Grove
TTITLE7=Trace of Destruction
TTITLE8=The Helmsman
TTITLE9=Set the Sails
TTITLE10=The Dragon's Sleeping
EXTD=YEAR: 2019
EXTT0=
EXTT1=
EXTT2=
EXTT3=
EXTT4=
EXTT5=
EXTT6=
EXTT7=
EXTT8=
EXTT9=
EXTT10=
PLAYORDER=
